<?xml version="1.0" encoding="UTF-8"?>
<svg xmlns="http://www.w3.org/2000/svg" xmlns:xlink="http://www.w3.org/1999/xlink" width="28px" height="28px" viewBox="0 0 28 28" version="1.1">
<g id="surface1">
<path style=" stroke:none;fill-rule:nonzero;fill:rgb(0%,0%,0%);fill-opacity:1;" d="M 19.089844 8.054688 L 21.539062 8.054688 L 18.882812 16.316406 C 18.648438 16.984375 18.53125 17.46875 18.53125 17.761719 L 18.53125 17.792969 C 18.53125 18.324219 18.816406 18.714844 19.386719 18.972656 L 19.414062 18.972656 C 19.59375 19.050781 19.789062 19.089844 20.007812 19.089844 C 21.265625 19.089844 22.417969 18.382812 23.457031 16.964844 C 24.460938 15.570312 24.964844 14.023438 24.964844 12.332031 L 24.964844 12.304688 C 24.964844 9.941406 24.011719 7.886719 22.101562 6.132812 C 20.152344 4.324219 17.800781 3.359375 15.046875 3.242188 L 14.574219 3.242188 C 11.683594 3.242188 9.125 4.246094 6.902344 6.253906 L 5.988281 7.167969 C 3.980469 9.390625 2.976562 11.917969 2.976562 14.753906 L 2.976562 14.78125 C 2.976562 17.554688 4.011719 19.898438 6.078125 21.804688 C 8.199219 23.773438 10.847656 24.757812 14.015625 24.757812 L 14.042969 24.757812 C 15.597656 24.757812 17.496094 24.441406 19.742188 23.8125 L 20.566406 25.789062 C 18.363281 26.617188 16.140625 27.03125 13.898438 27.03125 C 10.355469 27.03125 7.296875 25.976562 4.71875 23.871094 C 2.320312 21.902344 0.929688 19.472656 0.558594 16.582031 C 0.5 15.675781 0.46875 15.226562 0.46875 15.226562 C 0.46875 12.195312 1.402344 9.402344 3.273438 6.84375 C 3.507812 6.527344 3.753906 6.222656 4.011719 5.929688 C 4.03125 5.910156 4.050781 5.890625 4.070312 5.867188 C 4.089844 5.851562 4.109375 5.832031 4.128906 5.808594 C 4.402344 5.496094 4.699219 5.191406 5.011719 4.894531 L 5.132812 4.777344 C 7.257812 2.847656 9.804688 1.640625 12.773438 1.148438 C 13.503906 1.03125 14.230469 0.96875 14.960938 0.96875 C 18.226562 0.96875 21.070312 1.964844 23.488281 3.949219 C 25.769531 5.800781 27.089844 8.054688 27.441406 10.710938 C 27.5 11.121094 27.53125 11.527344 27.53125 11.917969 L 27.53125 11.949219 C 27.53125 14.328125 26.703125 16.496094 25.050781 18.441406 C 25.03125 18.480469 25.011719 18.511719 24.992188 18.53125 C 23.5 20.28125 21.667969 21.15625 19.503906 21.15625 C 17.617188 21.15625 16.535156 20.398438 16.257812 18.882812 C 14.960938 20.300781 13.570312 21.007812 12.097656 21.007812 L 12.066406 21.007812 C 10.453125 21.007812 9.183594 20.328125 8.261719 18.972656 C 7.589844 18.027344 7.257812 16.917969 7.257812 15.636719 L 7.257812 15.609375 C 7.257812 13.464844 8.035156 11.566406 9.585938 9.914062 C 11.101562 8.28125 12.835938 7.453125 14.78125 7.433594 L 14.839844 7.433594 C 16.472656 7.433594 17.664062 8.28125 18.414062 9.972656 L 18.441406 10 Z M 14.664062 9.320312 C 13.367188 9.320312 12.222656 10.019531 11.242188 11.417969 C 10.355469 12.65625 9.914062 14.054688 9.914062 15.609375 L 9.914062 15.636719 C 9.914062 16.957031 10.375 17.949219 11.300781 18.617188 L 11.328125 18.617188 C 11.78125 18.953125 12.273438 19.121094 12.804688 19.121094 L 12.835938 19.121094 C 13.976562 19.121094 14.980469 18.480469 15.84375 17.203125 C 16.496094 16.257812 16.976562 14.957031 17.289062 13.304688 L 17.4375 12.15625 C 17.496094 11.074219 17.074219 10.265625 16.167969 9.734375 C 15.71875 9.460938 15.214844 9.320312 14.664062 9.320312 Z M 14.664062 9.320312 "/>
</g>
</svg>
