<?xml version="1.0" encoding="UTF-8"?>
<svg xmlns="http://www.w3.org/2000/svg" xmlns:xlink="http://www.w3.org/1999/xlink" width="16px" height="16px" viewBox="0 0 16 16" version="1.1">
<g id="surface1">
<path style=" stroke:none;fill-rule:nonzero;fill:rgb(0%,0%,0%);fill-opacity:1;" d="M 10.910156 4.601562 L 12.308594 4.601562 L 10.789062 9.324219 C 10.65625 9.707031 10.589844 9.980469 10.589844 10.148438 L 10.589844 10.167969 C 10.589844 10.46875 10.75 10.695312 11.078125 10.839844 L 11.09375 10.839844 C 11.195312 10.886719 11.308594 10.910156 11.433594 10.910156 C 12.152344 10.910156 12.808594 10.503906 13.40625 9.695312 C 13.976562 8.898438 14.265625 8.015625 14.265625 7.046875 L 14.265625 7.03125 C 14.265625 5.679688 13.71875 4.507812 12.628906 3.503906 C 11.515625 2.472656 10.171875 1.921875 8.597656 1.851562 L 8.328125 1.851562 C 6.675781 1.851562 5.214844 2.425781 3.945312 3.574219 L 3.421875 4.097656 C 2.273438 5.367188 1.703125 6.8125 1.703125 8.429688 L 1.703125 8.445312 C 1.703125 10.03125 2.292969 11.371094 3.472656 12.460938 C 4.6875 13.585938 6.199219 14.148438 8.007812 14.148438 L 8.023438 14.148438 C 8.914062 14.148438 10 13.96875 11.28125 13.605469 L 11.753906 14.738281 C 10.492188 15.210938 9.222656 15.445312 7.941406 15.445312 C 5.917969 15.445312 4.167969 14.84375 2.695312 13.640625 C 1.324219 12.515625 0.53125 11.128906 0.316406 9.476562 C 0.285156 8.957031 0.269531 8.699219 0.269531 8.699219 C 0.269531 6.96875 0.800781 5.371094 1.871094 3.910156 C 2.003906 3.730469 2.144531 3.554688 2.292969 3.386719 C 2.304688 3.375 2.3125 3.363281 2.324219 3.355469 C 2.335938 3.34375 2.347656 3.332031 2.359375 3.320312 C 2.515625 3.140625 2.683594 2.964844 2.863281 2.796875 L 2.933594 2.730469 C 4.144531 1.628906 5.601562 0.9375 7.300781 0.65625 C 7.714844 0.589844 8.132812 0.554688 8.546875 0.554688 C 10.414062 0.554688 12.039062 1.121094 13.421875 2.257812 C 14.726562 3.316406 15.480469 4.601562 15.683594 6.121094 C 15.714844 6.355469 15.730469 6.585938 15.730469 6.8125 L 15.730469 6.828125 C 15.730469 8.1875 15.261719 9.425781 14.316406 10.539062 C 14.304688 10.5625 14.292969 10.578125 14.28125 10.589844 C 13.425781 11.589844 12.382812 12.089844 11.144531 12.089844 C 10.066406 12.089844 9.449219 11.65625 9.289062 10.789062 C 8.546875 11.601562 7.753906 12.003906 6.914062 12.003906 L 6.894531 12.003906 C 5.972656 12.003906 5.25 11.617188 4.71875 10.839844 C 4.339844 10.300781 4.148438 9.667969 4.148438 8.9375 L 4.148438 8.917969 C 4.148438 7.695312 4.589844 6.609375 5.480469 5.664062 C 6.34375 4.730469 7.335938 4.257812 8.445312 4.246094 L 8.480469 4.246094 C 9.414062 4.246094 10.09375 4.730469 10.519531 5.699219 L 10.539062 5.714844 Z M 8.378906 5.328125 C 7.636719 5.328125 6.984375 5.726562 6.421875 6.523438 C 5.917969 7.234375 5.664062 8.03125 5.664062 8.917969 L 5.664062 8.9375 C 5.664062 9.6875 5.929688 10.257812 6.457031 10.640625 L 6.472656 10.640625 C 6.730469 10.832031 7.011719 10.925781 7.316406 10.925781 L 7.335938 10.925781 C 7.984375 10.925781 8.558594 10.558594 9.054688 9.828125 C 9.425781 9.289062 9.699219 8.546875 9.878906 7.605469 L 9.964844 6.945312 C 10 6.328125 9.757812 5.867188 9.238281 5.5625 C 8.980469 5.40625 8.695312 5.328125 8.378906 5.328125 Z M 8.378906 5.328125 "/>
</g>
</svg>
